<svg id="eEuPNiVtpw61" xmlns="http://www.w3.org/2000/svg" xmlns:xlink="http://www.w3.org/1999/xlink" viewBox="0 0 50 50" shape-rendering="geometricPrecision" text-rendering="geometricPrecision"><g transform="matrix(.496901 0 0 0.477996-1.608062 1.085576)"><g transform="matrix(1.000009 0 0 0.999981-50.690084-46.709708)"><g clip-path="url(#eEuPNiVtpw67)"><g><path d="M61.820312,53.554688h76.359376v76.359374h-76.359376Zm0,0"/></g><clipPath id="eEuPNiVtpw67"><path d="M61.820312,53.554688h76.359376v76.359374h-76.359376Zm0,0"/></clipPath></g><path d="M74.578125,74.25h-2.113281v16.910156h2.113281ZM62.949219,91.160156h2.113281v-16.910156h-2.113281Zm4.230469-4.226562h3.167968v-2.113282h-3.167968Zm0,0" fill="#fff"/><path d="M81.363281,74.25h-2.113281v16.910156h2.113281Zm0,0" fill="#fff"/><path d="M95.550781,81.648438h-9.515625v9.511718h2.113282v-7.398437h7.402343c1.414063,0,2.109375-.71875,2.109375-2.113281v-5.285157c0-1.417969-.695312-2.113281-2.109375-2.113281h-9.515625v2.113281h9.515625Zm0,0" fill="#fff"/><path d="M111.847656,81.648438h-9.515625v9.511718h2.117188v-7.398437h7.398437c1.414063,0,2.113282-.71875,2.113282-2.113281v-5.285157c0-1.417969-.699219-2.113281-2.113282-2.113281h-9.515625v2.113281h9.515625Zm0,0" fill="#fff"/><path d="M120.746094,74.25h-2.113282v16.910156h2.113282Zm0,0" fill="#fff"/><path d="M137.046875,74.25h-11.628906v2.113281h11.628906ZM125.417969,91.160156h11.628906v-2.113281h-11.628906Zm0-4.226562h9.515625v-2.113282h-9.515625Zm0,0" fill="#fff"/><path d="M70.933594,111.636719h-5.441406v1.8125h5.441406c1.214844,0,1.8125-.613281,1.8125-1.8125v-12.699219h-1.8125Zm0,0" fill="#ff5757"/><path d="M78.570312,113.449219h6.347657c1.214843,0,1.8125-.613281,1.8125-1.8125v-12.699219h-1.8125v12.699219h-6.347657v-12.699219h-1.816406v12.699219c0,1.199219.617188,1.8125,1.816406,1.8125Zm0,0" transform="translate(.000001 0)" fill="#ff5757"/><path d="M90.738281,100.753906v12.695313h1.816407v-12.695313h6.347656v12.695313h1.8125v-12.695313c0-1.214844-.597656-1.816406-1.8125-1.816406h-6.347656c-1.199219,0-1.816407.601562-1.816407,1.816406Zm0,0" transform="translate(.000001 0)" fill="#ff5757"/><path d="M106.539062,98.9375h-1.816406v14.511719h1.816406v-6.347657h6.347657c1.214843,0,1.8125-.617187,1.8125-1.8125v-6.351562h-1.8125v6.351562h-6.347657Zm4.535157,14.511719h1.8125v-4.535157h-1.8125Zm0,0" transform="translate(.000001 0)" fill="#ff5757"/><path d="M120.523438,98.9375h-1.816407v14.511719h1.816407Zm0,0" fill="#ff5757"/><path d="M134.507812,98.9375h-9.976562v1.816406h9.976562Zm-9.976562,14.511719h9.976562v-1.8125h-9.976562Zm0-3.625h8.164062v-1.816407h-8.164062Zm0,0" fill="#ff5757"/><path d="M53.992188,137.84375v-.699219h2.683593l.410157-.410156v-1.25l-.410157-.40625h-1.917969l-.832031-.835937v-1.664063l.832031-.828125h2.917969v.691406h-2.550781l-.414062.410156v1.117188l.414062.40625h1.910156l.832032.828125v1.816406l-.832032.824219Zm0,0" fill="#ff5757"/><path d="M60.867188,137.84375v-5.402344h-1.699219v-.691406h4.183593v.691406h-1.699218v5.402344Zm0,0" fill="#ff5757"/><path d="M64.964844,137.84375v-6.09375h3.007812l.933594.925781v2.035157l-.851562.847656l1.015624,1.976562v.308594h-.730468l-1.132813-2.199219h-1.460937v2.199219Zm.78125-2.902344h1.851562l.523438-.523437v-1.449219l-.523438-.527344h-1.851562Zm0,0" fill="#ff5757"/><path d="M71.066406,137.84375v-6.09375h3.699219v.691406h-2.914063v1.976563h2.214844v.699219h-2.214844v2.027343h2.980469v.699219Zm0,0" fill="#ff5757"/><path d="M76.640625,137.84375v-6.09375h3.699219v.691406h-2.917969v1.976563h2.21875v.699219h-2.21875v2.027343h2.984375v.699219Zm0,0" transform="translate(.000001 0)" fill="#ff5757"/><path d="M83.277344,137.84375v-5.402344h-1.699219v-.691406h4.183594v.691406h-1.699219v5.402344Zm0,0" fill="#ff5757"/><path d="M91.351562,137.84375l-1.28125-5.792969v-.300781h.730469l1.152344,5.308594h.171875l.851562-3.675782-.257812-1.332031v-.300781h.734375l1.074219,5.308594h.167968L95.867188,131.75h.710937v.300781l-1.292969,5.792969h-1.285156l-.632812-2.835938h-.074219l-.691407,2.835938Zm0,0" fill="#ff5757"/><path d="M98.363281,137.84375v-6.09375h3.699219v.691406h-2.917969v1.976563h2.21875v.699219h-2.21875v2.027343h2.984375v.699219Zm0,0" fill="#ff5757"/><path d="M106.453125,131.75l1.730469,5.785156v.308594h-.738282l-.484374-1.660156h-2.308594l-.476563,1.660156h-.722656v-.308594L105.183594,131.75Zm-1.59375,3.742188h1.902344l-.867188-3.007813h-.160156Zm0,0" fill="#ff5757"/><path d="M109.941406,137.84375v-6.09375h3.007813l.933593.925781v2.035157l-.847656.847656l1.015625,1.976562v.308594h-.734375l-1.132812-2.199219h-1.457032v2.199219Zm.785156-2.902344h1.847657l.527343-.523437v-1.449219l-.527343-.527344h-1.847657Zm0,0" fill="#ff5757"/><path d="M119.023438,137.84375v-.699219h2.683593l.40625-.410156v-1.25l-.40625-.40625h-1.917969l-.832031-.835937v-1.664063l.832031-.828125h2.917969v.691406h-2.550781l-.417969.410156v1.117188l.417969.40625h1.910156l.832032.828125v1.816406l-.832032.824219Zm0,0" fill="#ff5757"/><path d="M125.898438,137.84375v-5.402344h-1.699219v-.691406h4.183593v.691406h-1.703124v5.402344Zm0,0" fill="#ff5757"/><path d="M130.859375,137.84375l-.972656-.976562v-4.140626l.972656-.976562h2.425781l.976563.976562v4.140626l-.976563.976562Zm.375-.699219h1.675781l.566406-.566406v-3.570313l-.566406-.566406h-1.675781l-.566406.566406v3.570313Zm0,0" fill="#ff5757"/><path d="M136.394531,137.84375v-6.09375h3.007813l.933594.925781v2.035157l-.851563.847656L140.5,137.535156v.308594h-.730469l-1.132812-2.199219h-1.460938v2.199219Zm.78125-2.902344h1.851563l.523437-.523437v-1.449219l-.523437-.527344h-1.851563Zm0,0" fill="#ff5757"/><path d="M142.496094,137.84375v-6.09375h3.699218v.691406h-2.914062v1.976563h2.214844v.699219h-2.214844v2.027343h2.980469v.699219Zm0,0" fill="#ff5757"/></g></g></svg>
